<?xml version="1.0" encoding="UTF-8" standalone="no"?>
<svg
   width="24"
   height="24"
   version="1"
   id="svg14"
   xmlns="http://www.w3.org/2000/svg"
   xmlns:svg="http://www.w3.org/2000/svg">
  <defs
     id="defs18" />
  <g
     id="g4354"
     transform="translate(-0.00123735,-0.80749883)">
    <path
       style="fill:#c49c3c;fill-opacity:1"
       d="m 22.001238,5.8329138 c 0,-0.554 -0.446,-1 -1,-1 H 3.0012367 c -0.554,0 -1,0.446 -1,1 V 17.832913 c 0,0.554 0.446,1 1,1 8.4337213,0.01383 9.7986143,0 18.0000013,0 0.554,0 1,-0.446 1,-1"
       id="path4-0" />
    <path
       style="fill:#f8d24c;fill-opacity:1"
       d="m 2.001237,21.043143 c 0,0.554 0.4460001,1 1,1 h 18.000001 c 0.554,0 1,-0.446 1,-1 v -11 c 0,-0.5540001 -0.446,-1.0000001 -1,-1.0000001 h -7.750296 c -1.5,0 -2,-1.9999997 -3.5000008,-1.9999997 H 3.001237 c -0.5539999,0 -1,0.446 -1,0.9999997"
       id="path4" />
  </g>
  <path
     style="opacity:0.1;fill:#ffffff"
     d="m -22.842318,-10.549449 c -0.554,0 -1,0.446 -1,0.9999997 v 0.5 c 0,-0.554 0.446,-0.9999997 1,-0.9999997 h 5.5 c 1.5,0 2,1.9999997 3.5,1.9999997 h 9.0000005 c 0.554,0 1,0.446 1,1 v -0.5 c 0,-0.554 -0.446,-1 -1,-1 h -9.0000005 c -1.5,0 -2,-1.9999997 -3.5,-1.9999997 z"
     id="path12" />
</svg>
