<svg width="512" height="512" version="1.1" viewBox="0 0 512 512" xmlns="http://www.w3.org/2000/svg">
 <defs>
  <linearGradient id="a" x1="-900.8" x2="-404.9" y1="205" y2="205" gradientTransform="matrix(1,0,0,1.086,908.9,16.57)" gradientUnits="userSpaceOnUse">
   <stop stop-color="#46D4FF" offset="0"/>
   <stop stop-color="#1792FF" offset="1"/>
  </linearGradient>
 </defs>
 <g transform="matrix(.6849 -.6849 .6849 .6849 -96.88 253.8)">
  <path d="m8.05 342.8h39.82v42.21h-39.82z" fill="#d3a407"/>
  <path d="m453.9 342.8h50.09v42.21h-50.09z" fill="#d3a407"/>
  <path d="m44.07 342.8h423.5v42.21h-423.5z" fill="#f5cc10"/>
  <path d="m8.05 133.4v121.5a20.29 20.29 0 0120.13 20.28 20.29 20.29 0 01-20.13 20.26v49.38h495.9v-49.36a20.29 20.29 0 01-.0625.0117 20.29 20.29 0 01-20.29-20.29 20.29 20.29 0 0120.29-20.29 20.29 20.29 0 01.0625.004v-121.5z" fill="url(#a)"/>
  <path d="m113.8 179.2c-11.08 0-20 8.92-20 20v79.84c0 11.08 8.92 20 20 20h57.04c11.08 0 20-8.92 20-20v-79.84c0-11.08-8.92-20-20-20h-49.04z" fill="#0057ab"/>
  <path d="m224.8 179.2h173.3c11.08 0 20 8.92 20 20v79.83c0 11.08-8.92 20-20 20h-173.3c-11.08 0-20-8.92-20-20v-79.83c0-11.08 8.92-20 20-20z" fill="#0057ab"/>
  <path d="m46.93 162.9a9.44 9.44 0 01-9.44 9.44 9.44 9.44 0 01-9.44-9.44 9.44 9.44 0 019.44-9.44 9.44 9.44 0 019.44 9.44z" fill="#1e61a2"/>
  <path d="m484 162.9a9.44 9.44 0 01-9.44 9.44 9.44 9.44 0 01-9.44-9.44 9.44 9.44 0 019.44-9.44 9.44 9.44 0 019.44 9.44z" fill="#1e61a2"/>
 </g>
</svg>
