<?xml version="1.0" encoding="UTF-8"?>
<svg id="svg11" width="2048" height="1350" version="1.1" viewBox="0 0 2048 1350" xmlns="http://www.w3.org/2000/svg">
<linearGradient id="linear-gradient" x1="921.6" x2="225.6" y1="672.3" y2="-23.68" gradientTransform="matrix(2 0 0 2.002 .02644 .00557)" gradientUnits="userSpaceOnUse">
<stop stop-color="#3217ff" offset="0"/>
<stop stop-color="#2b38ff" offset=".26"/>
<stop stop-color="#2455ff" offset=".5"/>
<stop stop-color="#1d74ff" offset=".75"/>
<stop stop-color="#1792ff" offset="1"/>
</linearGradient>
<linearGradient id="linear-gradient-2" x1="551.7" x2="438.4" y1="654.3" y2="12.11" gradientTransform="matrix(2 0 0 2.002 .02644 .00557)" gradientUnits="userSpaceOnUse">
<stop stop-color="#0e80ff" offset="0"/>
<stop stop-color="#0789ff" offset=".13"/>
<stop stop-color="#0090ff" offset=".25"/>
<stop stop-color="#009dff" offset=".38"/>
<stop stop-color="#0af" offset=".5"/>
<stop stop-color="#00b7ff" offset=".62"/>
<stop stop-color="#00c4ff" offset=".75"/>
<stop stop-color="#21ccff" offset=".87"/>
<stop stop-color="#46d4ff" offset="1"/>
</linearGradient>
<path id="dolphin-border" d="m2045 1275c-2.54.3605-77.04-340.4-269-529.8-156.5-154.4-510.6-456.1-970.5-423.2-359.9 25.69-310.5 198.7-290.7 190.4 56.36-23.55 320.9-98.76 603 59.19 249.4 139.7 345 373.7 330.1 391.9-3.18 3.845-90.3-217.9-489-302.3-309-65.44-633.2-11.89-771.2 42.97-56.14 22.33-147.8 83.24-165.5 22.29-16.62-57.13 67-103.2 76.86-141.1 12.88-49.5 3.98-294.6 359.6-399.6 138.3-40.81 413.4-80.1 713.5 12.18 14.82 3.244 32.68 1.862 44.16-5.267 25.72-15.98 77.94-49.94 182.3-59.19 200.6-17.78 258 69.01 248.3 85.83-4.88 8.49-160.3-41.01-193.1 56.23-12.24 36.2 13.56 56.63 31.88 69.23 65.34 42.63 126.8 90.93 183.7 144.4 133.1 124.6 225.6 258.2 300.8 439.9 59.88 144.6 87.14 344.1 74.8 345.9z" fill="url(#linear-gradient)"/>
<path id="dolphin" d="m2045 1275c-4.3.6008-147.2-310-339.1-499.4-156.5-154.4-441.8-407.5-902.6-389.7-205.7 7.95-302.2 103-288.3 126.2 13.56 22.63 281.2-62.12 567.1 88.87 260.2 137.4 370.9 359 365.5 363-4.42 3.344-202.2-173.6-501-251.9-1.16-.1802-2.3-.4205-3.46-.6808-53.54-13.18-58.08 58.59-2.96 127.3 63.8 79.5 93.76 86.45 90.66 96.68-3.94 12.88-126.2 17.58-244.4-65.12-104.1-72.87-150.8-171.8-164.6-184.5-11.64-10.71-24.94-8.11-40.4-7.89h-1.9c-166.1 6.308-264.8 24.73-392.3 75.39-56.14 22.33-133.5 27.13-177.6-18.5-45.74-47.36 78.04-114.1 87.9-151.9 12.88-49.5 5.06-242.9 360.7-347.9 138.5-40.89 414.2-80.22 714.9 12.6 15.16 3.725 28.84 4.185 42.8-5.687 37.12-26.27 99.42-61.58 203.7-70.95 175.3-15.72 231.4 38.27 226.9 48.24-4.06 8.911-160.3 8.31-193.1 105.6-12.24 36.2 13.56 56.63 31.88 69.23 65.34 42.63 126.8 90.93 183.7 144.4 133.1 124.6 225.6 258.2 300.8 439.9 59.86 144.6 79.96 296 74.96 296.8z" fill="url(#linear-gradient-2)"/>
<path id="circle" d="m2030 830a498 498 0 0 1-498 498 498 498 0 0 1-498-498 498 498 0 0 1 498-498 498 498 0 0 1 498 498z" fill="#2bc073" stroke-width="1.44"/>
<path id="tick" class="st1" d="m1460 1047-223.3-223.3c-3.024-3.024-3.024-7.569 0-10.59l64.34-64.34c3.024-3.024 7.569-3.024 10.59 0l153.6 153.6 289.2-289.2c3.024-3.024 7.569-3.024 10.6 0l64.34 64.34c3.024 3.024 3.024 7.569 0 10.6l-358.7 358.7c-3.024 3.024-7.569 3.024-10.59 0z" fill="#f9f9f9" stroke-width="1.44"/>
</svg>
