<?xml version="1.0" encoding="UTF-8"?>
<svg id="svg11" width="2048" height="1350" version="1.1" viewBox="0 0 2048 1350" xmlns="http://www.w3.org/2000/svg">
<linearGradient id="g" x2="0" y1="506" y2="1588" gradientTransform="translate(-.005999 -301.5)" gradientUnits="userSpaceOnUse">
<stop id="stop2" stop-color="#46D4FF" offset="0"/>
<stop id="stop4" stop-color="#1792FF" offset="1"/>
</linearGradient>
<path id="dolphin-border" d="m2047 1237c-6.813-22.83-49.28-160.5-120.8-292.6-94.26-173.9-175.3-298.3-310.4-424.6-43.44-40.62-84.6-76.92-127.4-109.5h0.047s-0.329-0.232-0.926-0.673c-0.801-0.607-1.602-1.214-2.403-1.818-15.99-12.35-83.34-69.11-59.38-131.8 8.031-21 27.42-38.45 50.48-52.57l124.1-1.011v-46l-0.03 1e-3 0.016-3e-3s-72.66-24.69-199.8-16.53c-119.3 7.655-226.5 77.43-246.6 87.24-64.26-18.4-137.6-34.62-223.3-49.17-296.6-50.32-547.6 29.9-673.6 117.3-165.1 114.6-160.5 221.4-174.1 274.8-8.431 33.08-83.41 94.26-82.51 137.2v45.18l15.49 15.96 58.4-19.85 6.985-24.36c24.02-8.59 50.32-20.53 74.22-30.36 59.62-24.52 64.21-37.86 227.1-62.17 74.96-11.18 153.8-14.39 212.6-14.89 22.86 48.26 79.68 147.5 178.1 195 64.03 30.94 135.7 46.8 192.9 54.92l-7.493 37.68 113.7 16.85v-45.97l-0.087-0.035h0.035s-95.43-39.65-154.1-98.36c-39.96-39.95-49.52-100.6-51.55-135.3l0.359 0.033c96.19 18.28 180.2 31.47 381.2 108.4 37.17 14.23 71.83 29.84 103.4 45.59l-5.935 3.35 90.58 73.04 108.2 89.53v-45.97l-0.358-0.332c-1.596-1.983-124.8-154.6-331.8-256.7-171.1-84.39-311.6-126.1-506.2-135.5-212.8-10.32-369.5 17-369.5 17s4.385-94.54 165-169.9c139.7-65.52 359.4-76.48 611.6-12.15 356.3 90.89 477.8 245.6 631 405.6 97.23 101.5 186.6 244.2 243 343l-9.49-4.259 29.19 75.39 41.75 89.1v-46.26l-1.237-3.603z" fill="#0057ab"/>
<path id="dolphin" d="m1926 990c-94.26-173.9-175.3-298.3-310.4-424.6-43.45-40.62-84.6-76.92-127.4-109.5l0.049 0.01s-0.34-0.24-0.962-0.699c-0.773-0.586-1.547-1.172-2.321-1.757-15.9-12.28-83.41-69.08-59.43-131.8 26.32-68.82 174.6-99.58 174.6-99.58s-72.66-24.69-199.8-16.53c-119.3 7.655-226.5 77.43-246.6 87.24-64.26-18.4-137.6-34.62-223.3-49.17-296.6-50.32-547.6 29.9-673.6 117.3-165.1 114.6-160.5 221.4-174.1 274.8-9.794 38.43-109.4 114.8-75.53 156.4 21.12 25.95 91.41-9.289 148.1-32.61 59.62-24.52 64.21-37.86 227.1-62.17 74.96-11.18 153.8-14.39 212.6-14.89 22.86 48.26 79.68 147.5 178.1 195 132.9 64.25 299 63.44 299 63.44s-95.43-39.65-154.1-98.36c-39.96-39.95-49.52-100.6-51.55-135.3l0.359 0.033c96.19 18.28 180.2 31.47 381.2 108.4 175.8 67.33 295.9 165.3 295.9 165.3s-123.5-154-331.9-256.8c-171.1-84.39-311.6-126.1-506.2-135.5-212.8-10.32-369.5 17-369.5 17s4.385-94.54 165-169.9c139.7-65.52 359.4-76.48 611.6-12.15 356.3 90.89 477.8 245.6 631 405.6 163.1 170.2 304.1 456.7 304.1 456.7s-43.49-151.4-121.8-295.9z" fill="url(#g)"/>
<path id="circle" d="m2030 830a498 498 0 0 1-498 498 498 498 0 0 1-498-498 498 498 0 0 1 498-498 498 498 0 0 1 498 498z" fill="#2bc073" stroke-width="1.44"/>
<path id="tick" class="st1" d="m1460 1047-223.3-223.3c-3.024-3.024-3.024-7.569 0-10.59l64.34-64.34c3.024-3.024 7.569-3.024 10.59 0l153.6 153.6 289.2-289.2c3.024-3.024 7.569-3.024 10.6 0l64.34 64.34c3.024 3.024 3.024 7.569 0 10.6l-358.7 358.7c-3.024 3.024-7.569 3.024-10.59 0z" fill="#f9f9f9" stroke-width="1.44"/>
</svg>
