<?xml version="1.0" encoding="UTF-8"?>
<svg id="svg11" width="2048" height="1350" version="1.1" viewBox="0 0 2048 1350" xmlns="http://www.w3.org/2000/svg">
<linearGradient id="g" x2="0" y1="506" y2="1588" gradientTransform="translate(-.005999 -301.5)" gradientUnits="userSpaceOnUse">
<stop id="stop2" stop-color="#a2a2a2" offset="0"/>
<stop id="stop4" stop-color="#8b8b8b" offset="1"/>
</linearGradient>
<path id="dolphin-border" d="m2045 1275c-2.54.3605-77.04-340.4-269-529.8-156.5-154.4-510.6-456.1-970.5-423.2-359.9 25.69-310.5 198.7-290.7 190.4 56.36-23.55 320.9-98.76 603 59.19 249.4 139.7 345 373.7 330.1 391.9-3.18 3.845-90.3-217.9-489-302.3-309-65.44-633.2-11.89-771.2 42.97-56.14 22.33-147.8 83.24-165.5 22.29-16.62-57.13 67-103.2 76.86-141.1 12.88-49.5 3.98-294.6 359.6-399.6 138.3-40.81 413.4-80.1 713.5 12.18 14.82 3.244 32.68 1.862 44.16-5.267 25.72-15.98 77.94-49.94 182.3-59.19 200.6-17.78 258 69.01 248.3 85.83-4.88 8.49-160.3-41.01-193.1 56.23-12.24 36.2 13.56 56.63 31.88 69.23 65.34 42.63 126.8 90.93 183.7 144.4 133.1 124.6 225.6 258.2 300.8 439.9 59.88 144.6 87.14 344.1 74.8 345.9z" fill="#ababab"/>
<path id="dolphin" d="m2045 1275c-4.3.6008-147.2-310-339.1-499.4-156.5-154.4-441.8-407.5-902.6-389.7-205.7 7.95-302.2 103-288.3 126.2 13.56 22.63 281.2-62.12 567.1 88.87 260.2 137.4 370.9 359 365.5 363-4.42 3.344-202.2-173.6-501-251.9-1.16-.1802-2.3-.4205-3.46-.6808-53.54-13.18-58.08 58.59-2.96 127.3 63.8 79.5 93.76 86.45 90.66 96.68-3.94 12.88-126.2 17.58-244.4-65.12-104.1-72.87-150.8-171.8-164.6-184.5-11.64-10.71-24.94-8.11-40.4-7.89h-1.9c-166.1 6.308-264.8 24.73-392.3 75.39-56.14 22.33-133.5 27.13-177.6-18.5-45.74-47.36 78.04-114.1 87.9-151.9 12.88-49.5 5.06-242.9 360.7-347.9 138.5-40.89 414.2-80.22 714.9 12.6 15.16 3.725 28.84 4.185 42.8-5.687 37.12-26.27 99.42-61.58 203.7-70.95 175.3-15.72 231.4 38.27 226.9 48.24-4.06 8.911-160.3 8.31-193.1 105.6-12.24 36.2 13.56 56.63 31.88 69.23 65.34 42.63 126.8 90.93 183.7 144.4 133.1 124.6 225.6 258.2 300.8 439.9 59.86 144.6 79.96 296 74.96 296.8z" fill="url(#g)"/>
</svg>
