<?xml version="1.0" encoding="UTF-8" standalone="no"?>
<svg
   width="24"
   height="24"
   version="1"
   id="svg14"
   sodipodi:docname="struct2.svg"
   inkscape:version="1.4 (86a8ad7, 2024-10-11)"
   xmlns:inkscape="http://www.inkscape.org/namespaces/inkscape"
   xmlns:sodipodi="http://sodipodi.sourceforge.net/DTD/sodipodi-0.dtd"
   xmlns="http://www.w3.org/2000/svg"
   xmlns:svg="http://www.w3.org/2000/svg">
  <sodipodi:namedview
     id="namedview1"
     pagecolor="#ffffff"
     bordercolor="#666666"
     borderopacity="1.0"
     inkscape:showpageshadow="2"
     inkscape:pageopacity="0.0"
     inkscape:pagecheckerboard="0"
     inkscape:deskcolor="#d1d1d1"
     inkscape:zoom="34"
     inkscape:cx="11.75"
     inkscape:cy="12"
     inkscape:window-width="1920"
     inkscape:window-height="1018"
     inkscape:window-x="-6"
     inkscape:window-y="-6"
     inkscape:window-maximized="1"
     inkscape:current-layer="g4354" />
  <defs
     id="defs18">
    <marker
       style="overflow:visible"
       id="marker6"
       refX="0"
       refY="0"
       orient="auto"
       markerWidth="0.35"
       markerHeight="0.35"
       viewBox="0 0 1 1"
       preserveAspectRatio="xMidYMid">
      <path
         transform="scale(0.5)"
         style="fill:context-stroke;fill-rule:evenodd;stroke:none"
         d="M 5,0 C 5,2.76 2.76,5 0,5 -2.76,5 -5,2.76 -5,0 c 0,-2.76 2.3,-5 5,-5 2.76,0 5,2.24 5,5 z"
         id="path6" />
    </marker>
    <marker
       style="overflow:visible"
       id="marker5"
       refX="0"
       refY="0"
       orient="auto"
       markerWidth="0.35"
       markerHeight="0.35"
       viewBox="0 0 1 1"
       preserveAspectRatio="xMidYMid">
      <path
         transform="scale(0.5)"
         style="fill:context-stroke;fill-rule:evenodd;stroke:none"
         d="M 5,0 C 5,2.76 2.76,5 0,5 -2.76,5 -5,2.76 -5,0 c 0,-2.76 2.3,-5 5,-5 2.76,0 5,2.24 5,5 z"
         id="path5" />
    </marker>
    <marker
       style="overflow:visible"
       id="Dot"
       refX="0"
       refY="0"
       orient="auto"
       markerWidth="0.35"
       markerHeight="0.35"
       viewBox="0 0 1 1"
       preserveAspectRatio="xMidYMid">
      <path
         transform="scale(0.5)"
         style="fill:context-stroke;fill-rule:evenodd;stroke:none"
         d="M 5,0 C 5,2.76 2.76,5 0,5 -2.76,5 -5,2.76 -5,0 c 0,-2.76 2.3,-5 5,-5 2.76,0 5,2.24 5,5 z"
         id="path17" />
    </marker>
  </defs>
  <g
     id="g4354"
     transform="translate(-0.00123735,-0.80749883)">
    <circle
       id="path1"
       cx="4.8394728"
       cy="4.2045569"
       r="2.3676472"
       style="fill:#0057ab;fill-opacity:1;stroke:#0057ab;stroke-opacity:1" />
    <circle
       id="path1-8"
       cx="18.868885"
       cy="4.1457343"
       r="2.2492647"
       style="fill:#0057ab;fill-opacity:1;stroke:#0057ab;stroke-width:0.95;stroke-opacity:1" />
    <circle
       id="path1-8-2"
       cx="18.868883"
       cy="10.008478"
       r="2.2492647"
       style="fill:#0057ab;fill-opacity:1;stroke:#0057ab;stroke-width:0.95;stroke-opacity:1" />
    <circle
       id="path1-8-5"
       cx="18.868883"
       cy="16.01828"
       r="2.2492647"
       style="fill:#0057ab;fill-opacity:1;stroke:#0057ab;stroke-width:0.95;stroke-opacity:1" />
    <circle
       id="path1-8-1"
       cx="18.868883"
       cy="22.086906"
       r="2.2492647"
       style="fill:#0057ab;fill-opacity:1;stroke:#0057ab;stroke-width:0.95;stroke-opacity:1" />
    <path
       style="fill:#0057ab;fill-opacity:1;stroke:#0057ab;stroke-width:3;stroke-linecap:round;stroke-linejoin:miter;stroke-dasharray:none;stroke-opacity:1"
       d="M 4.5600613,4.1310287 H 18.854178"
       id="path2"
       sodipodi:nodetypes="cc" />
    <path
       style="fill:none;stroke:#0057ab;stroke-width:3;stroke-linecap:round;stroke-linejoin:miter;stroke-dasharray:none;stroke-opacity:1"
       d="M 10.14828,4.5721996 10.007923,16.191428 c 0,0 6.707024,0.08666 6.728593,0.05725"
       id="path3"
       sodipodi:nodetypes="ccc" />
    <path
       style="fill:none;stroke:#0057ab;stroke-width:3;stroke-linecap:round;stroke-linejoin:miter;stroke-dasharray:none;stroke-opacity:1"
       d="M 10.148279,4.5168932 9.9743842,22.047458 16.736514,22.046258"
       id="path4"
       sodipodi:nodetypes="ccc" />
    <path
       style="fill:none;stroke:#0057ab;stroke-width:3;stroke-linecap:round;stroke-linejoin:miter;stroke-dasharray:none;stroke-opacity:1"
       d="m 10.118868,4.3369053 -0.02978,5.9329197 c 0,0 6.692902,0.01207 6.647429,0.03768"
       id="path7"
       inkscape:label="path7"
       sodipodi:nodetypes="ccc" />
  </g>
  <path
     style="opacity:0.1;fill:#ffffff"
     d="m -22.842318,-10.549449 c -0.554,0 -1,0.446 -1,0.9999997 v 0.5 c 0,-0.554 0.446,-0.9999997 1,-0.9999997 h 5.5 c 1.5,0 2,1.9999997 3.5,1.9999997 h 9.0000005 c 0.554,0 1,0.446 1,1 v -0.5 c 0,-0.554 -0.446,-1 -1,-1 h -9.0000005 c -1.5,0 -2,-1.9999997 -3.5,-1.9999997 z"
     id="path12" />
</svg>
